<svg xmlns="http://www.w3.org/2000/svg" data-name="Layer 1" viewBox="0 0 342 114">
    <path fill="#212121" d="M174.4 84.2c0 1.1-9.7 15.8-27.1 10.8a22.9 22.9 0 0 1-17-19.6c-.5-7.8 1.6-16.7 1.4-24.7v-2.8a7.5 7.5 0 0 1-1.2.7c-.5.6-1.3 1.2-1.7 1.8-7.6 9.6-9.5 22.6-6.2 32.5 4.5 13.4 15.5 21.6 30 22.2 24.9.9 31.5-20 31.3-21.1zm100.2-44.1c-3.6 0-6.7.2-9.7 0a4.7 4.7 0 0 0-4 1.7c-2.5 3.4-5.5 6.7-8 9.9-4.9 6.1-9.9 12.3-15 18.4 8.9 11 17.7 22.1 26.4 33.1a2.8 2.8 0 0 0 1.3 1.1c3.8.2 7.6 0 12 0l-27.2-34.2c8-10.1 16.2-19.7 24.2-30m67.2 63.1l-27.1-62.5a2.5 2.5 0 0 0-2.5-1.7c-1.1 0-1.9 1.5-4.4 5.7a5.7 5.7 0 0 0-.2 5.1c2.1 4.4 3.8 8.5 5.6 12.9 5.7 13.3 11.5 26.6 17.2 39.7a2.5 2.5 0 0 0 1.9 1.5c3.1.2 6.3 0 9.5 0 .2 0 .2-.3 0-.7m-26-18.4c-4.5.1-9.3 0-14.2 0 2.4-5.9 4.9-11.6 7.4-17.2a5 5 0 0 0 .4-3c-1.6-3.6-3.1-7.4-4.8-11.6-7.6 17.3-14.8 34-22.2 51.1h11c1.3-3 2.6-5.9 3.8-8.9a2.1 2.1 0 0 1 2.5-1.5h22.2c-1.1-2.5-2.1-4.6-3-6.9a2.8 2.8 0 0 0-3.1-2m-118 19.3h10.1V40.3h-10.1zm26.6 0h9.9V40.3h-9.9zM10.1 40.3H0v50.3h9.9zM136 56.4c6.1-5.5 12.6-7.9 20-7.6s13.5 4 18.1 10.1l7.4-6.1c-9.5-13.7-30.1-17.8-43.7-8.5a3.5 3.5 0 0 0-1.6 2.3 96.4 96.4 0 0 0-.2 9.8M0 104.1h39.5v-8.9H0zm154.7-24.7h29.8v-8.7h-29.8zM74.1 22l-3.2-11a2.8 2.8 0 0 0 1.7-2.6V3.2a1.2 1.2 0 0 1 1.1-1.1h.4V0h-.4a3.3 3.3 0 0 0-3.2 3.2v5A1.4 1.4 0 0 1 69 9.7h-.8V0h-2.1v9.7h-.6A1.4 1.4 0 0 1 64 8.2v-5A3.3 3.3 0 0 0 60.8 0h-.4v2.1h.4a1.2 1.2 0 0 1 1.1 1.1v5.2a2.5 2.5 0 0 0 1.7 2.6l-3.2 11h2.3l2.8-10.4h.6V22h2.1V11.6h.6L71.6 22zm26.8-2h-4v-9h3.6V9.1h-3.6v-7h4V0h-6.1v22h6.1zm24.3-6.9v-11h3.4V22h2.1V0h-7.6v13.9c0 1.5 0 6.4-1.7 6.4v2.1c3.8 0 3.8-5.5 3.8-9.3m32.9 6.9h-4v-8.8h3.6V9.3h-3.6V2.1h4V0H152v22h6.1zm23.7 2h1.4a3.1 3.1 0 0 0 3-3v-6.5a2.6 2.6 0 0 0-1.5-2.4 2.5 2.5 0 0 0 1.5-2.7V3a3.1 3.1 0 0 0-3-3H182a3.1 3.1 0 0 0-3 3v2.5h2.1V3a.9.9 0 0 1 .9-.9h1.4a.9.9 0 0 1 .9.9v4.2a1.9 1.9 0 0 1-1.5 2.1h-1.3v1.9h1.1a1.5 1.5 0 0 1 1.7 1.2v7a.8.8 0 0 1-.9.9H182c-.5 0-.7-.5-.9-.9v-3.6H179v3.4a2.7 2.7 0 0 0 2.8 2.8m31.8-12.7h-3.8V0h-2.1v22h2.1V11.2h3.8V22h2.1V0h-2.1zM110.8 37.6c1.5-1.7 0-2.8-1.7-4.2s-2.9-1.9-4.2-.3l-9.1 11.6A33.1 33.1 0 0 0 50 54.5a32.1 32.1 0 0 0-5.4 17.9 32.5 32.5 0 0 0 7.8 21.3l6.1-8a23.8 23.8 0 0 1-4.2-13.3A23.6 23.6 0 0 1 77.9 49a22.4 22.4 0 0 1 12 3.4l-42.6 56.9c-1.3 1.7 5.3 5.7 5.9 4.5l9.1-11.9A33.3 33.3 0 0 0 111 72.6a32 32 0 0 0-6.1-18.8l-6.5 8.3a25.9 25.9 0 0 1 2.5 10.7 23.5 23.5 0 0 1-23.8 23.4 22.8 22.8 0 0 1-9.3-1.9zM239.6 0l-3 22h2.1l.9-6.6h3.6l1 6.6h2.1l-2.9-22zm.2 13.7l1.5-11.6h.2l1.5 11.6zm32.9 8.3h2.1V0h-5a3.1 3.1 0 0 0-3 3v4.4a3.4 3.4 0 0 0 2.5 3.6l-2.9 11h2.3l2.8-10.8h1zM271 9.3a1.7 1.7 0 0 1-1.9-1.3V3a.8.8 0 0 1 .9-.9h2.7v7.2z"/>
</svg>
